<?xml version="1.0" encoding="UTF-8"?>
<svg id="Layer_2" data-name="Layer 2" xmlns="http://www.w3.org/2000/svg" viewBox="0 0 20 14.27">
  <defs>
    <style>
      .cls-1 {
        fill: #fff;
      }
    </style>
  </defs>
  <g id="Layer_1-2" data-name="Layer 1">
    <g>
      <path class="cls-1" d="M13.72,9.34c-4.07,1.21-7.86,2.94-11.47,4.93L0,10.47c-.01-.27,3.12-1.2,3.64-1.41,2.68-1.06,5.32-2.28,7.76-3.72.22.05,2.43,3.79,2.32,4Z"/>
      <path class="cls-1" d="M15.43,10.38l-3.89-7.13c-1.16.5-2.49-1.19-1.41-2C10.33,1.11,12.91,0,13.08,0c.82-.02,1.54,1.02,1.34,1.73-.13.44-.57.3-.66.63.14,0,.33,0,.46.08.35.21,3.39,6.03,3.94,6.85,0,.2-2.44,1.27-2.72,1.1Z"/>
      <path class="cls-1" d="M15.85,12.44c-.56-.51-.64-1.34-.12-1.73.28-.21,2.42-1.13,2.77-1.18,1.27-.19,2.03,1.37,1.07,2.03-.2.14-2.58,1.17-2.77,1.19-.22.02-.79-.17-.95-.31Z"/>
    </g>
  </g>
</svg>