<?xml version="1.0" encoding="UTF-8"?>
<svg id="Layer_2" data-name="Layer 2" xmlns="http://www.w3.org/2000/svg" viewBox="0 0 24 16.23">
  <defs>
    <style>
      .cls-1 {
        fill: #e8eaed;
      }
    </style>
  </defs>
  <g id="Layer_1-2" data-name="Layer 1">
    <path class="cls-1" d="M1.64,8.11c0,1.25.21,2.44.64,3.57.43,1.13,1.04,2.17,1.84,3.12.16.18.23.38.24.61s-.08.42-.25.59c-.17.17-.37.24-.6.23s-.43-.11-.58-.29c-.94-1.09-1.66-2.31-2.17-3.64-.51-1.34-.76-2.73-.76-4.17s.25-2.84.76-4.17C1.27,2.6,2,1.39,2.93.29,3.09.11,3.28.02,3.52,0s.43.06.6.23c.17.17.25.36.25.59,0,.22-.08.43-.24.61-.8.94-1.41,1.98-1.84,3.12-.43,1.13-.64,2.32-.64,3.57ZM5.76,8.11c0,.7.11,1.37.32,2.01.21.64.52,1.23.94,1.78.14.18.22.39.22.62,0,.23-.08.43-.25.6-.17.17-.36.25-.59.24-.22,0-.41-.1-.55-.28-.56-.7-.99-1.47-1.29-2.32-.3-.85-.45-1.73-.45-2.65s.15-1.79.45-2.65c.3-.85.73-1.63,1.29-2.32.14-.18.33-.28.55-.28.22,0,.42.07.59.24s.25.37.25.6c0,.23-.08.44-.22.62-.41.55-.73,1.14-.94,1.78-.21.64-.32,1.31-.32,2.01ZM18.24,8.11c0-.7-.11-1.37-.32-2.01-.21-.64-.52-1.23-.94-1.78-.14-.18-.22-.39-.22-.62,0-.23.08-.43.25-.6s.36-.25.59-.24c.22,0,.41.1.55.28.56.7.99,1.47,1.29,2.32.3.85.45,1.73.45,2.65,0,.91-.15,1.79-.45,2.65-.3.85-.73,1.63-1.29,2.32-.14.18-.33.28-.55.28-.22,0-.42-.07-.59-.24-.17-.17-.25-.37-.25-.6,0-.23.08-.44.22-.62.41-.55.73-1.14.94-1.78.21-.64.32-1.31.32-2.01ZM22.36,8.11c0-1.25-.21-2.44-.64-3.57-.43-1.13-1.04-2.17-1.84-3.12-.16-.18-.23-.38-.24-.61s.08-.42.25-.59.37-.24.6-.23c.23.01.43.11.58.29.94,1.09,1.66,2.31,2.17,3.64.51,1.34.76,2.73.76,4.17,0,1.44-.25,2.84-.76,4.17-.51,1.34-1.23,2.55-2.17,3.64-.16.18-.35.28-.58.29-.23.01-.43-.06-.6-.23-.17-.17-.25-.36-.25-.59,0-.22.08-.43.24-.61.8-.94,1.41-1.98,1.84-3.12.43-1.13.64-2.32.64-3.57ZM14.81,8.1c0,1.54-1.25,2.79-2.79,2.79s-2.79-1.25-2.79-2.79,1.25-2.79,2.79-2.79,2.79,1.25,2.79,2.79Z"/>
  </g>
</svg>