<?xml version="1.0" encoding="UTF-8"?>
<svg id="Layer_2" data-name="Layer 2" xmlns="http://www.w3.org/2000/svg" viewBox="0 0 17.92 17.92">
  <defs>
    <style>
      .cls-1 {
        fill: #e8eaed;
      }
    </style>
  </defs>
  <g id="Layer_1-2" data-name="Layer 1">
    <path class="cls-1" d="M4.03,7.76V3.69H1.91c-.09,0-.17.03-.23.09-.06.06-.09.14-.09.23v.73c0,.74.23,1.38.69,1.94s1.05.91,1.76,1.08ZM13.89,7.76c.71-.16,1.3-.52,1.76-1.08s.69-1.2.69-1.94v-.73c0-.09-.03-.17-.09-.23-.06-.06-.14-.09-.23-.09h-2.13v4.07ZM8.17,16.34v-3.61c-.92-.13-1.72-.49-2.42-1.07-.7-.58-1.17-1.32-1.42-2.2-1.22-.14-2.24-.66-3.08-1.55-.84-.89-1.26-1.94-1.26-3.16v-.73c0-.53.19-.97.56-1.35.37-.37.82-.56,1.35-.56h2.13v-.2c0-.53.19-.97.56-1.35.37-.37.82-.56,1.35-.56h6.04c.53,0,.98.19,1.35.56.37.37.56.82.56,1.35v.2h2.13c.53,0,.97.19,1.35.56.37.37.56.82.56,1.35v.73c0,1.22-.42,2.27-1.26,3.16-.84.89-1.86,1.4-3.08,1.55-.25.88-.72,1.62-1.42,2.2-.7.58-1.5.94-2.42,1.07v3.61h2.96c.22,0,.41.08.56.23.15.15.23.34.23.56s-.08.41-.23.56c-.15.15-.34.23-.56.23h-7.5c-.22,0-.41-.08-.56-.23-.15-.15-.23-.34-.23-.56s.08-.41.23-.56c.15-.15.34-.23.56-.23h2.96Z"/>
  </g>
</svg>