<?xml version="1.0" encoding="UTF-8"?>
<svg id="Layer_2" data-name="Layer 2" xmlns="http://www.w3.org/2000/svg" viewBox="0 0 23.88 10.88">
  <defs>
    <style>
      .cls-1 {
        fill: #e8eaed;
      }
    </style>
  </defs>
  <g id="Layer_1-2" data-name="Layer 1">
    <path class="cls-1" d="M.9,10.88c-.25,0-.47-.09-.64-.26-.17-.17-.26-.39-.26-.64v-.37c0-.69.36-1.26,1.08-1.7.72-.44,1.66-.67,2.82-.67.19,0,.38,0,.58.02.19.01.39.04.59.07-.2.32-.35.66-.45,1.01-.1.35-.15.71-.15,1.07v1.47s-3.57,0-3.57,0ZM7.17,10.88c-.27,0-.49-.09-.67-.27-.18-.18-.27-.4-.27-.67v-.49c0-.49.14-.93.41-1.33.27-.4.67-.75,1.18-1.05.51-.3,1.12-.52,1.82-.67.7-.15,1.47-.22,2.3-.22s1.62.07,2.32.22c.7.15,1.31.37,1.82.67.51.3.9.65,1.17,1.05.27.4.4.85.4,1.33v.49c0,.27-.09.49-.27.67-.18.18-.4.27-.67.27,0,0-9.54,0-9.54,0ZM19.4,10.88v-1.47c0-.39-.05-.76-.14-1.1-.09-.34-.23-.67-.42-.98.2-.03.4-.06.58-.07s.37-.02.55-.02c1.16,0,2.1.22,2.82.66.72.44,1.08,1.01,1.08,1.71v.37c0,.25-.09.47-.26.64-.17.17-.39.26-.64.26h-3.57ZM3.9,6.24c-.49,0-.91-.17-1.25-.52-.35-.35-.52-.77-.52-1.25,0-.49.17-.91.52-1.25.35-.34.77-.51,1.25-.51s.91.17,1.26.51c.34.34.52.76.52,1.26,0,.48-.17.9-.51,1.25-.34.35-.76.53-1.27.53ZM19.98,6.24c-.48,0-.9-.18-1.25-.53-.35-.35-.53-.77-.53-1.25s.18-.92.53-1.26c.35-.34.77-.51,1.25-.51.5,0,.92.17,1.26.51s.51.76.51,1.25-.17.91-.51,1.25c-.34.35-.76.52-1.27.52ZM11.94,5.39c-.75,0-1.38-.26-1.91-.79-.53-.52-.79-1.16-.79-1.91s.26-1.4.79-1.92c.52-.52,1.16-.77,1.91-.77s1.4.26,1.92.77c.52.52.77,1.15.77,1.92s-.26,1.38-.77,1.91c-.52.53-1.16.79-1.92.79Z"/>
  </g>
</svg>