<?xml version="1.0" encoding="UTF-8"?>
<svg id="Layer_2" data-name="Layer 2" xmlns="http://www.w3.org/2000/svg" viewBox="0 0 18 18.28">
  <defs>
    <style>
      .cls-1 {
        fill: #e8eaed;
      }
    </style>
  </defs>
  <g id="Layer_1-2" data-name="Layer 1">
    <path class="cls-1" d="M9.23,4.44l2.4,2.4c.17.17.26.37.26.59s-.09.42-.26.59l-7.81,7.82c-.17.17-.36.26-.57.26s-.4-.09-.57-.26L.26,13.42c-.17-.17-.26-.37-.26-.6s.09-.42.26-.6l7.81-7.78c.17-.17.37-.26.58-.26s.41.09.58.26ZM15.88,1.2l-3.57,3.57-1-1L14.88.2C15.01.07,15.17,0,15.37,0c.2,0,.37.06.5.2.14.14.21.3.21.5,0,.2-.07.36-.21.5ZM12.05,15.31c0-.82.29-1.52.87-2.1.58-.58,1.28-.87,2.1-.87s1.52.29,2.1.87c.58.58.87,1.28.87,2.1,0,.82-.29,1.52-.87,2.1-.58.58-1.28.87-2.1.87s-1.52-.29-2.1-.87c-.58-.58-.87-1.28-.87-2.1Z"/>
  </g>
</svg>