<?xml version="1.0" encoding="UTF-8"?>
<svg id="Layer_2" data-name="Layer 2" xmlns="http://www.w3.org/2000/svg" viewBox="0 0 146 17">
  <defs>
    <style>
      .cls-1 {
        fill: none;
      }

      .cls-2 {
        fill: #e8eaed;
      }
    </style>
  </defs>
  <g id="Layer_1-2" data-name="Layer 1">
    <g>
      <rect class="cls-1" x="0" y="0" width="146" height="17"/>
      <g>
        <path class="cls-2" d="M13.72,10.94c-4.07,1.21-7.86,2.94-11.47,4.93L0,12.06c-.01-.27,3.12-1.2,3.64-1.41,2.68-1.06,5.32-2.28,7.76-3.72.22.05,2.43,3.79,2.32,4Z"/>
        <path class="cls-2" d="M15.43,11.98l-3.89-7.13c-1.16.5-2.49-1.19-1.41-2,.2-.15,2.77-1.26,2.94-1.26.82-.02,1.54,1.02,1.34,1.73-.13.44-.57.3-.66.63.14,0,.33,0,.46.08.35.21,3.39,6.03,3.94,6.85,0,.2-2.44,1.27-2.72,1.1Z"/>
        <path class="cls-2" d="M15.85,14.04c-.56-.51-.64-1.34-.12-1.73.28-.21,2.42-1.13,2.77-1.18,1.27-.19,2.03,1.37,1.07,2.03-.2.14-2.58,1.17-2.77,1.19-.22.02-.79-.17-.95-.31Z"/>
      </g>
      <g>
        <path class="cls-2" d="M41.87,16.6l-1.09-3.57h-5.46l-1.09,3.57h-3.42l5.29-15.05h3.88l5.31,15.05h-3.42ZM40.03,10.37l-1.09-3.48c-.07-.24-.16-.54-.27-.9-.11-.36-.22-.73-.34-1.11-.11-.38-.2-.71-.27-.99-.07.28-.17.63-.28,1.04-.12.41-.23.8-.34,1.18-.11.37-.19.63-.24.79l-1.07,3.48h3.9Z"/>
        <path class="cls-2" d="M57.45,5.14v11.46h-2.39l-.42-1.47h-.17c-.36.59-.86,1.01-1.5,1.28s-1.31.4-2.03.4c-1.23,0-2.22-.33-2.96-1-.74-.66-1.11-1.73-1.11-3.2v-7.47h3.13v6.7c0,.83.15,1.44.44,1.86.29.41.76.62,1.41.62.95,0,1.6-.33,1.95-.98s.52-1.58.52-2.8v-5.39h3.13Z"/>
        <path class="cls-2" d="M65.38,16.81c-1.71,0-3.03-.47-3.96-1.41-.93-.94-1.4-2.43-1.4-4.47,0-1.4.24-2.54.71-3.42.48-.88,1.14-1.53,1.98-1.95.85-.42,1.82-.63,2.93-.63.78,0,1.47.08,2.05.23.58.15,1.09.34,1.52.55l-.92,2.41c-.49-.2-.95-.36-1.38-.48s-.85-.19-1.27-.19c-1.62,0-2.43,1.15-2.43,3.46,0,1.15.21,1.99.64,2.54s1.03.82,1.79.82c.66,0,1.24-.09,1.74-.26.5-.17.99-.42,1.47-.72v2.67c-.48.31-.98.53-1.5.66-.52.13-1.19.2-1.98.2Z"/>
        <path class="cls-2" d="M76.33,14.31c.35,0,.69-.03,1.01-.09.32-.06.64-.15.97-.26v2.33c-.34.15-.75.28-1.25.38-.5.1-1.04.15-1.63.15-.69,0-1.3-.11-1.84-.34-.54-.22-.97-.61-1.28-1.15-.32-.55-.47-1.31-.47-2.31v-5.52h-1.49v-1.32l1.72-1.05.9-2.41h1.99v2.43h3.21v2.35h-3.21v5.52c0,.43.13.76.38.98.25.22.58.33.99.33Z"/>
        <path class="cls-2" d="M82.19.65c.46,0,.86.11,1.2.33.34.22.5.62.5,1.21s-.17.97-.5,1.2c-.34.22-.73.34-1.2.34s-.88-.11-1.21-.34c-.33-.22-.49-.62-.49-1.2s.17-.99.49-1.21c.33-.22.73-.33,1.21-.33ZM83.74,5.14v11.46h-3.13V5.14h3.13Z"/>
        <path class="cls-2" d="M97.43,10.85c0,1.9-.5,3.37-1.5,4.41-1,1.04-2.36,1.55-4.08,1.55-1.06,0-2.01-.23-2.84-.69-.83-.46-1.49-1.14-1.96-2.03-.48-.89-.71-1.97-.71-3.24,0-1.9.5-3.36,1.49-4.39.99-1.02,2.36-1.53,4.09-1.53,1.08,0,2.03.23,2.85.69.83.46,1.48,1.13,1.95,2.01.47.88.71,1.95.71,3.21ZM89.51,10.85c0,1.13.19,1.99.56,2.57.37.58.98.87,1.82.87s1.42-.29,1.79-.87c.37-.58.56-1.44.56-2.57s-.19-1.98-.56-2.55c-.37-.57-.98-.85-1.82-.85s-1.42.28-1.79.85c-.37.57-.56,1.42-.56,2.55Z"/>
        <path class="cls-2" d="M106.51,4.93c1.23,0,2.22.33,2.96,1,.74.66,1.11,1.73,1.11,3.2v7.47h-3.13v-6.7c0-.83-.15-1.44-.44-1.86-.29-.41-.76-.62-1.41-.62-.95,0-1.6.33-1.95.98s-.52,1.58-.52,2.8v5.39h-3.13V5.14h2.39l.42,1.47h.17c.36-.59.86-1.01,1.5-1.28.64-.27,1.31-.4,2.03-.4Z"/>
      </g>
    </g>
  </g>
</svg>