<?xml version="1.0" encoding="UTF-8"?>
<svg id="Layer_2" data-name="Layer 2" xmlns="http://www.w3.org/2000/svg" viewBox="0 0 146 17">
  <defs>
    <style>
      .cls-1 {
        fill: none;
      }

      .cls-2 {
        fill: #e8eaed;
      }
    </style>
  </defs>
  <g id="Layer_1-2" data-name="Layer 1">
    <g>
      <g>
        <rect class="cls-1" x="0" y="0" width="146" height="17"/>
        <path class="cls-2" d="M1.5,8.9c0,1.14.2,2.23.59,3.27.39,1.04.96,1.99,1.69,2.86.14.17.22.35.22.56s-.07.38-.23.54c-.15.15-.34.22-.55.21s-.39-.1-.53-.27c-.86-1-1.52-2.11-1.99-3.34-.47-1.23-.7-2.5-.7-3.83s.23-2.6.7-3.83c.47-1.23,1.13-2.34,1.99-3.34.14-.17.32-.26.53-.27s.4.06.55.21c.15.15.23.33.23.54,0,.2-.08.39-.22.56-.73.87-1.29,1.82-1.69,2.86-.39,1.04-.59,2.13-.59,3.27ZM5.28,8.9c0,.64.1,1.25.29,1.84.19.59.48,1.13.86,1.63.13.17.2.36.2.57,0,.21-.07.4-.23.55-.15.15-.33.23-.54.22-.2,0-.37-.09-.5-.26-.51-.64-.91-1.35-1.18-2.13-.27-.78-.41-1.59-.41-2.43s.14-1.64.41-2.43c.27-.78.67-1.49,1.18-2.13.13-.17.3-.25.5-.26.2,0,.38.07.54.22s.23.34.23.55c0,.21-.07.4-.2.57-.38.5-.67,1.05-.86,1.63-.19.59-.29,1.2-.29,1.84ZM16.72,8.9c0-.64-.1-1.25-.29-1.84-.19-.59-.48-1.13-.86-1.63-.13-.17-.2-.36-.2-.57,0-.21.07-.4.23-.55s.33-.23.54-.22c.2,0,.37.09.5.26.51.64.91,1.35,1.18,2.13.27.78.41,1.59.41,2.43,0,.84-.14,1.64-.41,2.43-.27.78-.67,1.49-1.18,2.13-.13.17-.3.25-.5.26-.2,0-.38-.07-.54-.22-.15-.15-.23-.34-.23-.55,0-.21.07-.4.2-.57.38-.5.67-1.05.86-1.63.19-.59.29-1.2.29-1.84ZM20.49,8.9c0-1.14-.2-2.23-.59-3.27-.39-1.04-.96-1.99-1.69-2.86-.14-.17-.22-.35-.22-.56s.07-.38.23-.54.34-.22.55-.21c.21.01.39.1.53.27.86,1,1.52,2.11,1.99,3.34.47,1.23.7,2.5.7,3.83,0,1.32-.23,2.6-.7,3.83-.47,1.23-1.13,2.34-1.99,3.34-.14.17-.32.26-.53.27-.21.01-.4-.06-.55-.21-.15-.15-.23-.33-.23-.54,0-.2.08-.39.22-.56.73-.87,1.29-1.82,1.69-2.86.39-1.04.59-2.13.59-3.27ZM13.57,8.89c0,1.41-1.15,2.56-2.56,2.56s-2.56-1.15-2.56-2.56,1.15-2.56,2.56-2.56,2.56,1.15,2.56,2.56Z"/>
      </g>
      <g>
        <path class="cls-2" d="M32.7,16.77V1.78h3.17v12.36h6.09v2.62h-9.26Z"/>
        <path class="cls-2" d="M45.88.82c.46,0,.86.11,1.2.33.34.22.5.62.5,1.21s-.17.97-.5,1.2c-.34.22-.73.34-1.2.34s-.88-.11-1.21-.34c-.33-.22-.49-.62-.49-1.2s.17-.99.49-1.21c.33-.22.73-.33,1.21-.33ZM47.43,5.31v11.46h-3.13V5.31h3.13Z"/>
        <path class="cls-2" d="M53.44,16.77l-4.37-11.46h3.27l2.2,6.53c.13.39.22.8.29,1.22s.12.8.15,1.13h.08c.04-.76.2-1.54.46-2.35l2.2-6.53h3.27l-4.37,11.46h-3.21Z"/>
        <path class="cls-2" d="M67.37,5.1c1.58,0,2.83.45,3.76,1.35.92.9,1.38,2.19,1.38,3.85v1.51h-7.39c.03.88.29,1.57.79,2.08.5.5,1.19.76,2.07.76.73,0,1.4-.07,2-.22.61-.15,1.23-.37,1.88-.68v2.41c-.57.28-1.17.49-1.78.62-.62.13-1.36.2-2.25.2-1.15,0-2.16-.21-3.04-.64-.88-.43-1.57-1.07-2.08-1.93-.5-.86-.76-1.96-.76-3.28s.23-2.44.68-3.34c.45-.9,1.09-1.57,1.9-2.01.81-.45,1.76-.67,2.83-.67ZM67.39,7.32c-.62,0-1.12.2-1.51.59-.39.39-.62,1-.69,1.83h4.39c-.01-.69-.2-1.26-.56-1.72s-.9-.69-1.63-.69Z"/>
      </g>
    </g>
  </g>
</svg>