<?xml version="1.0" encoding="UTF-8"?>
<svg id="Layer_2" data-name="Layer 2" xmlns="http://www.w3.org/2000/svg" viewBox="0 0 146 17">
  <defs>
    <style>
      .cls-1 {
        fill: none;
      }

      .cls-2 {
        fill: #e8eaed;
      }
    </style>
  </defs>
  <g id="Layer_1-2" data-name="Layer 1">
    <g>
      <rect class="cls-1" y="0" width="146" height="17"/>
      <path class="cls-2" d="M9.22,4.29l2.2,2.2c.16.16.24.34.24.54s-.08.39-.24.54l-7.17,7.19c-.16.16-.33.24-.52.24s-.36-.08-.52-.24l-2.23-2.23c-.16-.16-.24-.34-.24-.55s.08-.39.24-.55l7.18-7.14c.16-.16.34-.24.53-.24s.38.08.53.24ZM15.32,1.31l-3.28,3.28-.92-.92L14.4.39c.12-.12.27-.18.45-.19.18,0,.34.06.46.19.13.13.19.28.19.46,0,.18-.06.33-.19.46ZM11.8,14.27c0-.75.27-1.4.8-1.93.53-.53,1.18-.8,1.93-.8s1.4.27,1.93.8c.53.53.8,1.18.8,1.93,0,.75-.27,1.4-.8,1.93-.53.53-1.18.8-1.93.8s-1.4-.27-1.93-.8c-.53-.53-.8-1.18-.8-1.93Z"/>
      <g>
        <path class="cls-2" d="M39.04,16.22l-3.61-11.75h-.08c.01.28.04.7.06,1.26.03.56.06,1.16.08,1.8.03.64.04,1.22.04,1.72v6.97h-2.83V1.24h4.32l3.55,11.46h.06l3.76-11.46h4.32v14.99h-2.96v-7.09c0-.48.01-1.02.03-1.64.02-.62.04-1.2.06-1.75.02-.55.04-.97.05-1.25h-.08l-3.86,11.73h-2.92Z"/>
        <path class="cls-2" d="M56.94,4.53c1.54,0,2.72.33,3.54,1,.82.66,1.23,1.68,1.23,3.05v7.64h-2.18l-.61-1.55h-.08c-.49.62-1.01,1.06-1.55,1.34-.54.28-1.29.42-2.25.42-1.02,0-1.87-.29-2.54-.88-.67-.59-1.01-1.5-1.01-2.75s.43-2.11,1.28-2.69c.85-.57,2.13-.9,3.84-.97l1.99-.06v-.5c0-.6-.16-1.04-.47-1.32-.32-.28-.75-.42-1.31-.42s-1.11.08-1.64.24c-.53.16-1.06.36-1.59.6l-1.03-2.12c.6-.31,1.28-.56,2.04-.75.76-.19,1.54-.28,2.35-.28ZM58.6,10.91l-1.22.04c-1.01.03-1.71.21-2.1.55-.39.34-.59.78-.59,1.32,0,.48.14.82.42,1.02.28.2.64.3,1.09.3.67,0,1.24-.2,1.7-.6.46-.4.69-.96.69-1.69v-.94Z"/>
        <path class="cls-2" d="M69.74,13.93c.35,0,.69-.03,1.01-.09.32-.06.64-.15.97-.26v2.33c-.34.15-.75.28-1.25.38-.5.1-1.04.15-1.63.15-.69,0-1.3-.11-1.84-.34-.54-.22-.97-.61-1.28-1.15-.32-.55-.47-1.31-.47-2.31v-5.52h-1.49v-1.32l1.72-1.05.9-2.41h1.99v2.43h3.21v2.35h-3.21v5.52c0,.43.13.76.38.98.25.22.58.33.99.33Z"/>
        <path class="cls-2" d="M78.68,16.43c-1.71,0-3.03-.47-3.96-1.41-.93-.94-1.4-2.43-1.4-4.47,0-1.4.24-2.54.71-3.42.48-.88,1.14-1.53,1.98-1.95.85-.42,1.82-.63,2.93-.63.78,0,1.47.08,2.05.23.58.15,1.09.34,1.52.55l-.92,2.41c-.49-.2-.95-.36-1.38-.48s-.85-.19-1.27-.19c-1.62,0-2.43,1.15-2.43,3.46,0,1.15.21,1.99.64,2.54s1.03.82,1.79.82c.66,0,1.24-.09,1.74-.26.5-.17.99-.42,1.47-.72v2.67c-.48.31-.98.53-1.5.66-.52.13-1.19.2-1.98.2Z"/>
        <path class="cls-2" d="M87.94.27v3.25c0,.57-.02,1.12-.05,1.63-.04.51-.07.87-.09,1.08h.17c.36-.59.83-1.01,1.41-1.28.57-.27,1.21-.4,1.91-.4,1.23,0,2.22.33,2.98,1,.75.66,1.13,1.73,1.13,3.2v7.47h-3.13v-6.7c0-1.65-.62-2.48-1.85-2.48-.94,0-1.58.33-1.94.98-.36.65-.54,1.58-.54,2.8v5.39h-3.13V.27h3.13Z"/>
        <path class="cls-2" d="M103.32,4.55c1.58,0,2.83.45,3.76,1.35.92.9,1.38,2.19,1.38,3.85v1.51h-7.39c.03.88.29,1.57.79,2.08.5.5,1.19.76,2.07.76.73,0,1.4-.07,2-.22.61-.15,1.23-.37,1.88-.68v2.41c-.57.28-1.17.49-1.78.62-.62.13-1.36.2-2.25.2-1.15,0-2.16-.21-3.04-.64-.88-.43-1.57-1.07-2.08-1.93-.5-.86-.76-1.96-.76-3.28s.23-2.44.68-3.34c.45-.9,1.09-1.57,1.9-2.01.81-.45,1.76-.67,2.83-.67ZM103.34,6.78c-.62,0-1.12.2-1.51.59-.39.39-.62,1-.69,1.83h4.39c-.01-.69-.2-1.26-.56-1.72s-.9-.69-1.63-.69Z"/>
        <path class="cls-2" d="M119,12.82c0,1.16-.41,2.05-1.23,2.68-.82.62-2.04.93-3.66.93-.8,0-1.48-.05-2.06-.16-.57-.1-1.15-.28-1.72-.51v-2.58c.62.28,1.28.51,1.99.69.71.18,1.34.27,1.89.27.6,0,1.04-.09,1.3-.27.27-.18.4-.42.4-.71,0-.2-.05-.37-.16-.52-.1-.15-.33-.33-.68-.52-.35-.2-.9-.45-1.64-.76-.73-.31-1.32-.61-1.77-.91-.45-.3-.79-.66-1.02-1.09-.22-.43-.34-.96-.34-1.61,0-1.06.41-1.86,1.24-2.39.83-.53,1.92-.8,3.29-.8.71,0,1.39.07,2.04.21.64.14,1.31.37,1.99.69l-.94,2.25c-.56-.24-1.09-.44-1.6-.6-.5-.16-1.01-.24-1.53-.24-.92,0-1.38.25-1.38.76,0,.18.06.35.18.49.12.15.35.3.69.47s.85.39,1.52.67c.66.27,1.22.54,1.7.83.48.29.84.65,1.1,1.08.26.43.39.99.39,1.66Z"/>
      </g>
    </g>
  </g>
</svg>