<?xml version="1.0" encoding="UTF-8"?>
<svg id="Layer_2" data-name="Layer 2" xmlns="http://www.w3.org/2000/svg" viewBox="0 0 146.08 17">
  <defs>
    <style>
      .cls-1 {
        fill: none;
      }

      .cls-2 {
        fill: #e8eaed;
      }
    </style>
  </defs>
  <g id="Layer_1-2" data-name="Layer 1">
    <g>
      <rect class="cls-1" width="146" height="17"/>
      <path class="cls-2" d="M4.38,7.75v-3.4h-1.78c-.08,0-.14.03-.2.08-.05.05-.08.12-.08.2v.61c0,.62.19,1.16.58,1.62s.88.77,1.47.9ZM12.62,7.75c.6-.13,1.09-.43,1.47-.9s.58-1.01.58-1.62v-.61c0-.08-.03-.14-.08-.2-.05-.05-.12-.08-.2-.08h-1.78v3.4ZM7.84,14.94v-3.02c-.77-.11-1.44-.41-2.02-.9-.58-.49-.98-1.1-1.19-1.84-1.02-.12-1.88-.55-2.58-1.3-.7-.74-1.05-1.63-1.05-2.65v-.61c0-.44.16-.82.47-1.13.31-.31.69-.47,1.13-.47h1.78v-.17c0-.44.16-.82.47-1.13.31-.31.69-.47,1.13-.47h5.06c.44,0,.82.16,1.13.47.31.31.47.69.47,1.13v.17h1.78c.44,0,.82.16,1.13.47.31.31.47.69.47,1.13v.61c0,1.02-.35,1.9-1.05,2.65-.7.74-1.56,1.18-2.58,1.3-.21.74-.6,1.35-1.19,1.84-.58.49-1.26.79-2.02.9v3.02h2.48c.19,0,.35.06.47.19.13.13.19.28.19.47s-.06.34-.19.47c-.13.13-.28.19-.47.19h-6.28c-.19,0-.34-.06-.47-.19-.13-.13-.19-.28-.19-.47s.06-.35.19-.47c.13-.13.28-.19.47-.19h2.48Z"/>
      <g>
        <path class="cls-2" d="M37.49,1.65c1.93,0,3.34.42,4.23,1.25.89.83,1.33,1.98,1.33,3.43,0,.88-.18,1.7-.55,2.46-.36.76-.97,1.36-1.82,1.83-.85.46-2,.69-3.45.69h-1.36v5.33h-3.17V1.65h4.79ZM37.32,4.25h-1.45v4.45h1.05c.9,0,1.61-.18,2.13-.54.53-.36.79-.93.79-1.73,0-1.46-.84-2.18-2.52-2.18Z"/>
        <path class="cls-2" d="M56.04,10.88c0,1.9-.5,3.37-1.5,4.41-1,1.04-2.36,1.55-4.08,1.55-1.06,0-2.01-.23-2.84-.69-.83-.46-1.49-1.14-1.96-2.03-.48-.89-.71-1.97-.71-3.24,0-1.9.5-3.36,1.49-4.39.99-1.02,2.36-1.53,4.09-1.53,1.08,0,2.03.23,2.85.69.83.46,1.48,1.13,1.95,2.01.47.88.71,1.95.71,3.21ZM48.13,10.88c0,1.13.19,1.99.56,2.57.37.58.98.87,1.82.87s1.42-.29,1.79-.87c.37-.58.56-1.44.56-2.57s-.19-1.98-.56-2.55c-.37-.57-.98-.85-1.82-.85s-1.42.28-1.79.85c-.37.57-.56,1.42-.56,2.55Z"/>
        <path class="cls-2" d="M60.19.68c.46,0,.86.11,1.2.33.34.22.5.62.5,1.21s-.17.97-.5,1.2c-.34.22-.73.34-1.2.34s-.88-.11-1.21-.34c-.33-.22-.49-.62-.49-1.2s.17-.99.49-1.21c.33-.22.73-.33,1.21-.33ZM61.75,5.17v11.46h-3.13V5.17h3.13Z"/>
        <path class="cls-2" d="M71.53,4.96c1.23,0,2.22.33,2.96,1,.74.66,1.11,1.73,1.11,3.2v7.47h-3.13v-6.7c0-.83-.15-1.44-.44-1.86-.29-.41-.76-.62-1.41-.62-.95,0-1.6.33-1.95.98s-.52,1.58-.52,2.8v5.39h-3.13V5.17h2.39l.42,1.47h.17c.36-.59.86-1.01,1.5-1.28.64-.27,1.31-.4,2.03-.4Z"/>
        <path class="cls-2" d="M83.64,14.34c.35,0,.69-.03,1.01-.09.32-.06.64-.15.97-.26v2.33c-.34.15-.75.28-1.25.38-.5.1-1.04.15-1.63.15-.69,0-1.3-.11-1.84-.34-.54-.22-.97-.61-1.28-1.15-.32-.55-.47-1.31-.47-2.31v-5.52h-1.49v-1.32l1.72-1.05.9-2.41h1.99v2.43h3.21v2.35h-3.21v5.52c0,.43.13.76.38.98.25.22.58.33.99.33Z"/>
        <path class="cls-2" d="M99.4,16.63h-3.17V4.29h-4.07V1.65h11.31v2.64h-4.07v12.34Z"/>
        <path class="cls-2" d="M108.55,4.94c1.54,0,2.72.33,3.54,1,.82.66,1.23,1.68,1.23,3.05v7.64h-2.18l-.61-1.55h-.08c-.49.62-1.01,1.06-1.55,1.34-.54.28-1.29.42-2.25.42-1.02,0-1.87-.29-2.54-.88-.67-.59-1.01-1.5-1.01-2.75s.43-2.11,1.28-2.69c.85-.57,2.13-.9,3.84-.97l1.99-.06v-.5c0-.6-.16-1.04-.47-1.32-.32-.28-.75-.42-1.31-.42s-1.11.08-1.64.24c-.53.16-1.06.36-1.59.6l-1.03-2.12c.6-.31,1.28-.56,2.04-.75.76-.19,1.54-.28,2.35-.28ZM110.21,11.32l-1.22.04c-1.01.03-1.71.21-2.1.55-.39.34-.59.78-.59,1.32,0,.48.14.82.42,1.02.28.2.64.3,1.09.3.67,0,1.24-.2,1.7-.6.46-.4.69-.96.69-1.69v-.94Z"/>
        <path class="cls-2" d="M119.65.68v3.71c0,.43-.01.86-.04,1.28-.03.42-.06.75-.08.99h.13c.31-.48.72-.88,1.24-1.21.52-.33,1.19-.49,2.01-.49,1.29,0,2.33.5,3.13,1.5.8,1,1.2,2.47,1.2,4.42s-.41,3.44-1.22,4.45c-.81,1.01-1.88,1.51-3.19,1.51-.84,0-1.5-.15-1.98-.45-.48-.3-.88-.64-1.19-1.02h-.21l-.53,1.26h-2.39V.68h3.13ZM121.9,7.46c-.81,0-1.38.26-1.72.77-.34.51-.51,1.28-.52,2.3v.34c0,1.11.16,1.96.49,2.55.33.59.93.89,1.79.89.64,0,1.15-.3,1.53-.89.38-.59.57-1.45.57-2.57s-.19-1.96-.58-2.53-.91-.85-1.56-.85Z"/>
        <path class="cls-2" d="M132.94,16.63h-3.13V.68h3.13v15.95Z"/>
        <path class="cls-2" d="M140.93,4.96c1.58,0,2.83.45,3.76,1.35.92.9,1.38,2.19,1.38,3.85v1.51h-7.39c.03.88.29,1.57.79,2.08.5.5,1.19.76,2.07.76.73,0,1.4-.07,2-.22.61-.15,1.23-.37,1.88-.68v2.41c-.57.28-1.17.49-1.78.62-.62.13-1.36.2-2.25.2-1.15,0-2.16-.21-3.04-.64-.88-.43-1.57-1.07-2.08-1.93-.5-.86-.76-1.96-.76-3.28s.23-2.44.68-3.34c.45-.9,1.09-1.57,1.9-2.01.81-.45,1.76-.67,2.83-.67ZM140.96,7.19c-.62,0-1.12.2-1.51.59-.39.39-.62,1-.69,1.83h4.39c-.01-.69-.2-1.26-.56-1.72s-.9-.69-1.63-.69Z"/>
      </g>
    </g>
  </g>
</svg>