<?xml version="1.0" encoding="UTF-8"?>
<svg id="Layer_2" data-name="Layer 2" xmlns="http://www.w3.org/2000/svg" viewBox="0 0 146 16">
  <defs>
    <style>
      .cls-1 {
        fill: none;
      }

      .cls-2 {
        fill: #e8eaed;
      }
    </style>
  </defs>
  <g id="Layer_1-2" data-name="Layer 1">
    <g>
      <rect class="cls-1" y="0" width="146" height="16"/>
      <path class="cls-2" d="M1.9,13.42c-.25,0-.47-.09-.64-.26-.17-.17-.26-.39-.26-.64v-.37c0-.69.36-1.26,1.08-1.7.72-.44,1.66-.67,2.82-.67.19,0,.38,0,.58.02.19.01.39.04.59.07-.2.32-.35.66-.45,1.01-.1.35-.15.71-.15,1.07v1.47s-3.57,0-3.57,0ZM8.17,13.42c-.27,0-.49-.09-.67-.27-.18-.18-.27-.4-.27-.67v-.49c0-.49.14-.93.41-1.33.27-.4.67-.75,1.18-1.05.51-.3,1.12-.52,1.82-.67.7-.15,1.47-.22,2.3-.22s1.62.07,2.32.22c.7.15,1.31.37,1.82.67.51.3.9.65,1.17,1.05.27.4.4.85.4,1.33v.49c0,.27-.09.49-.27.67-.18.18-.4.27-.67.27,0,0-9.54,0-9.54,0ZM20.4,13.42v-1.47c0-.39-.05-.76-.14-1.1-.09-.34-.23-.67-.42-.98.2-.03.4-.06.58-.07s.37-.02.55-.02c1.16,0,2.1.22,2.82.66.72.44,1.08,1.01,1.08,1.71v.37c0,.25-.09.47-.26.64-.17.17-.39.26-.64.26h-3.57ZM4.9,8.78c-.49,0-.91-.17-1.25-.52-.35-.35-.52-.77-.52-1.25,0-.49.17-.91.52-1.25.35-.34.77-.51,1.25-.51s.91.17,1.26.51c.34.34.52.76.52,1.26,0,.48-.17.9-.51,1.25-.34.35-.76.53-1.27.53ZM20.98,8.78c-.48,0-.9-.18-1.25-.53-.35-.35-.53-.77-.53-1.25s.18-.92.53-1.26c.35-.34.77-.51,1.25-.51.5,0,.92.17,1.26.51s.51.76.51,1.25-.17.91-.51,1.25c-.34.35-.76.52-1.27.52ZM12.94,7.93c-.75,0-1.38-.26-1.91-.79-.53-.52-.79-1.16-.79-1.91s.26-1.4.79-1.92c.52-.52,1.16-.77,1.91-.77s1.4.26,1.92.77c.52.52.77,1.15.77,1.92s-.26,1.38-.77,1.91c-.52.53-1.16.79-1.92.79Z"/>
      <g>
        <path class="cls-2" d="M40.47,15.37h-3.17V3.03h-4.07V.38h11.31v2.64h-4.07v12.34Z"/>
        <path class="cls-2" d="M49.85,3.7c1.58,0,2.83.45,3.76,1.35.92.9,1.38,2.19,1.38,3.85v1.51h-7.39c.03.88.29,1.57.79,2.08.5.5,1.19.76,2.07.76.73,0,1.4-.07,2-.22.61-.15,1.23-.37,1.88-.68v2.41c-.57.28-1.17.49-1.78.62-.62.13-1.36.2-2.25.2-1.15,0-2.16-.21-3.04-.64-.88-.43-1.57-1.07-2.08-1.93-.5-.86-.76-1.96-.76-3.28s.23-2.44.68-3.34c.45-.9,1.09-1.57,1.9-2.01.81-.45,1.76-.67,2.83-.67ZM49.87,5.93c-.62,0-1.12.2-1.51.59-.39.39-.62,1-.69,1.83h4.39c-.01-.69-.2-1.26-.56-1.72s-.9-.69-1.63-.69Z"/>
        <path class="cls-2" d="M62.24,3.68c1.54,0,2.72.33,3.54,1,.82.66,1.23,1.68,1.23,3.05v7.64h-2.18l-.61-1.55h-.08c-.49.62-1.01,1.06-1.55,1.34-.54.28-1.29.42-2.25.42-1.02,0-1.87-.29-2.54-.88-.67-.59-1.01-1.5-1.01-2.75s.43-2.11,1.28-2.69c.85-.57,2.13-.9,3.84-.97l1.99-.06v-.5c0-.6-.16-1.04-.47-1.32-.32-.28-.75-.42-1.31-.42s-1.11.08-1.64.24c-.53.16-1.06.36-1.59.6l-1.03-2.12c.6-.31,1.28-.56,2.04-.75.76-.19,1.54-.28,2.35-.28ZM63.89,10.06l-1.22.04c-1.01.03-1.71.21-2.1.55-.39.34-.59.78-.59,1.32,0,.48.14.82.42,1.02.28.2.64.3,1.09.3.67,0,1.24-.2,1.7-.6.46-.4.69-.96.69-1.69v-.94Z"/>
        <path class="cls-2" d="M83.67,3.7c1.3,0,2.28.33,2.95,1,.66.66,1,1.73,1,3.2v7.47h-3.13v-6.7c0-1.65-.57-2.48-1.72-2.48-.83,0-1.41.29-1.76.88s-.52,1.43-.52,2.54v5.75h-3.13v-6.7c0-1.65-.57-2.48-1.72-2.48-.87,0-1.47.33-1.79.98-.33.65-.49,1.58-.49,2.8v5.39h-3.13V3.91h2.39l.42,1.47h.17c.35-.59.83-1.01,1.44-1.28.61-.27,1.24-.4,1.9-.4.84,0,1.55.14,2.13.41.58.27,1.03.7,1.35,1.27h.27c.35-.59.84-1.01,1.46-1.28.62-.27,1.26-.4,1.92-.4Z"/>
        <path class="cls-2" d="M98.82,11.97c0,1.16-.41,2.05-1.23,2.68-.82.62-2.04.93-3.66.93-.8,0-1.48-.05-2.06-.16-.57-.1-1.15-.28-1.72-.51v-2.58c.62.28,1.28.51,1.99.69.71.18,1.34.27,1.89.27.6,0,1.04-.09,1.3-.27.27-.18.4-.42.4-.71,0-.2-.05-.37-.16-.52-.1-.15-.33-.33-.68-.52-.35-.2-.9-.45-1.64-.76-.73-.31-1.32-.61-1.77-.91-.45-.3-.79-.66-1.02-1.09-.22-.43-.34-.96-.34-1.61,0-1.06.41-1.86,1.24-2.39.83-.53,1.92-.8,3.29-.8.71,0,1.39.07,2.04.21.64.14,1.31.37,1.99.69l-.94,2.25c-.56-.24-1.09-.44-1.6-.6-.5-.16-1.01-.24-1.53-.24-.92,0-1.38.25-1.38.76,0,.18.06.35.18.49.12.15.35.3.69.47s.85.39,1.52.67c.66.27,1.22.54,1.7.83.48.29.84.65,1.1,1.08.26.43.39.99.39,1.66Z"/>
      </g>
    </g>
  </g>
</svg>